# xmcd
#
# Track frame offsets:
#	150
#	13819
#	27798
#	41112
#	55003
#	70397
#	83751
#	96078
#	114058
#	124905
#	139968
#	154414
#	169671
#	182114
#	195341
#	211688
#	221371
#
# Disc length: 3182 seconds
#
# Revision: 1
# Processed by: cddbd v1.5.2PL0 Copyright (c) Steve Scherf et al.
# Submitted via: audiograbber 1.83.01
#
DISCID=e50c6c11
DTITLE=Various Artist - Chartbusters
DYEAR=2007
DGENRE=Gospel
TTITLE0=Hank Williams - I Saw The Light
TTITLE1=Roy Acuff - The Great Speckled Bird
TTITLE2=Loretta Lynn - When The Roll Is Called Up Yonder
TTITLE3=Patsy Cline - Just A Closer Walk With Thee
TTITLE4=Porter Wagoner and Dolly Parton - Daddy Was A Old Time Preacher Man
TTITLE5=Grandpa Jones - Falling Leaves
TTITLE6=Flatt and Scruggs - Preach'in Prayin' Singin'
TTITLE7=Tammy Wynette - How Great Thou Art
TTITLE8=Barbara Mandrell - Satisfied
TTITLE9=Alan Jackson - I Want To Stroll Over Heaven With You
TTITLE10=Hank Williams - Calling You
TTITLE11=Emmylou Harris and Ricky Skaggs - Darkest Hour Is Just Before Dawn
TTITLE12=Loretta Lynn - Swing Low
TTITLE13=Tammy Wynette - Precious Memories
TTITLE14=Charley Pride - Let Me Live In The Light Of His Love
TTITLE15=Alan Jackson - Blessed Assurance
TTITLE16=Judds, The - When King Jesus Calls His Children Home
EXTD=
EXTT0=
EXTT1=
EXTT2=
EXTT3=
EXTT4=
EXTT5=
EXTT6=
EXTT7=
EXTT8=
EXTT9=
EXTT10=
EXTT11=
EXTT12=
EXTT13=
EXTT14=
EXTT15=
EXTT16=
PLAYORDER=
